<svg version="1.1" id="Layer_1" xmlns="http://www.w3.org/2000/svg" xmlns:xlink="http://www.w3.org/1999/xlink" x="0px" y="0px"
	 width="100%" viewBox="0 0 238 219" enable-background="new 0 0 238 219" xml:space="preserve">
<path fill="#42B3C8" opacity="1.000000" stroke="none"
	d="
M224.937881,32.969761 
	C224.565720,33.406940 224.193558,33.844120 223.484161,34.750294 
	C222.729385,35.736500 222.278000,36.230137 221.899155,36.774284 
	C198.236801,70.760933 174.547913,104.729263 151.010925,138.802536 
	C149.714264,140.679626 149.187988,143.423599 149.149048,145.778046 
	C148.959320,157.252884 148.668991,168.750000 149.185913,180.204407 
	C149.549957,188.271057 147.862152,195.043655 142.219925,201.043152 
	C138.367737,205.139297 135.211197,209.906281 131.902191,214.487854 
	C130.698441,216.154541 129.953995,218.152939 129.000000,220.000000 
	C128.555557,220.000000 128.111115,220.000000 127.511246,219.561142 
	C127.426743,192.816452 127.422821,166.509903 127.671906,140.205750 
	C127.700142,137.223816 128.418289,133.754059 130.056107,131.357727 
	C147.620743,105.658623 165.456268,80.144859 183.171432,54.548378 
	C191.690201,42.239700 200.110825,29.863108 208.575897,17.517273 
	C208.575897,17.517273 208.519882,17.445452 208.781860,17.249758 
	C210.956985,15.946539 212.767838,14.156621 214.801331,13.851761 
	C222.829620,12.648151 230.927765,11.910499 239.000000,11.000001 
	C239.000000,11.444445 239.000000,11.888888 238.700516,12.822826 
	C233.913315,19.864799 229.425598,26.417278 224.937881,32.969761 
z"/>
<path fill="#41B4C8" opacity="1.000000" stroke="none" 
	d="
M17.010481,12.544011 
	C17.453339,12.655042 17.896198,12.766071 19.053421,12.988791 
	C25.588230,13.241299 29.411217,15.938150 32.367134,21.129602 
	C35.978115,27.471531 40.592999,33.242226 44.778908,39.256359 
	C65.711464,69.331367 86.692421,99.372993 107.496376,129.536682 
	C109.284492,132.129272 110.876656,135.517807 110.910576,138.555038 
	C111.185921,163.208298 111.074829,187.865967 111.053169,212.522278 
	C111.051651,214.247742 110.823799,215.973022 110.598152,219.148560 
	C108.349579,216.423599 106.958252,214.850037 105.691437,213.181931 
	C101.259918,207.346649 96.697823,201.597733 92.558830,195.559952 
	C91.071442,193.390213 89.905396,190.509781 89.853676,187.928421 
	C89.583366,174.439178 89.965149,160.934280 89.552238,147.452209 
	C89.438416,143.735596 88.179100,139.525314 86.082832,136.479233 
	C62.854645,102.726616 39.381119,69.142586 15.915039,35.554123 
	C11.067724,28.615862 5.977998,21.846960 1.000000,15.000000 
	C1.000000,13.933213 1.000000,12.866426 1.425420,11.428282 
	C6.904054,11.552620 11.957268,12.048315 17.010481,12.544011 
z"/>
<path fill="#4BA6B7" opacity="1.000000" stroke="none"
	d="
M48.700184,16.228130 
	C48.700184,16.228130 48.838230,16.393206 49.308891,16.501251 
	C56.656925,17.510696 63.517216,18.592714 70.418106,19.245508 
	C74.533302,19.634787 77.437485,21.113693 79.600243,24.811220 
	C81.578499,28.193298 84.323662,31.126793 86.730865,34.257969 
	C86.730865,34.257969 86.755043,34.174141 86.813477,34.529678 
	C88.489563,37.024086 90.107208,39.162952 91.724854,41.301819 
	C91.724854,41.301819 91.724754,41.233902 91.785835,41.567284 
	C93.518578,44.124252 95.190231,46.347847 96.861885,48.571442 
	C96.861885,48.571442 96.917648,48.825794 97.123581,49.221107 
	C104.773628,59.742687 112.217751,69.868950 119.572639,80.152313 
	C117.346840,78.812340 114.625557,77.742683 113.168312,75.749069 
	C103.473595,62.486027 93.450203,49.400558 84.743690,35.499493 
	C78.753273,25.935020 71.784363,19.785187 60.132118,20.229187 
	C58.400848,20.295156 56.670811,20.393372 54.940201,20.476671 
	C55.498692,22.267971 55.665321,24.328865 56.681210,25.805485 
	C62.045307,33.602329 67.596405,41.271412 73.133080,48.948437 
	C83.322853,63.077343 93.552391,77.177559 103.755630,91.296761 
	C107.448700,96.407227 111.201393,101.478302 114.746750,106.689888 
	C116.079453,108.648941 116.901558,110.955353 117.793892,113.255707 
	C117.411018,113.608856 117.190361,113.809334 116.806396,113.739746 
	C115.799393,112.555275 114.955376,111.640503 114.111359,110.725723 
	C114.118103,110.459740 114.027222,110.232864 113.562775,109.606033 
	C102.580833,94.398117 91.874847,79.629265 81.168861,64.860413 
	C81.168861,64.860413 81.149368,64.844139 81.078232,64.502441 
	C71.022354,50.089169 61.000404,36.043659 51.103008,21.910929 
	C49.949387,20.263649 49.484413,18.134100 48.700184,16.228130 
z"/>
<path fill="#4BA4B3" opacity="1.000000" stroke="none" 
	d="
M168.338043,18.128210 
	C169.007782,18.123886 169.677536,18.119562 171.000137,18.225616 
	C172.722931,18.392469 173.801697,18.565729 174.861328,18.485744 
	C180.207993,18.082157 185.549713,17.612606 190.893158,17.166199 
	C190.893158,17.166199 190.807419,17.553190 190.577606,17.970121 
	C185.939880,24.297398 181.531952,30.207743 177.147827,35.751911 
	C179.135529,31.758043 180.961563,28.046364 183.104889,24.527967 
	C184.979523,21.450672 183.955551,20.054245 180.759735,20.153135 
	C177.286819,20.260601 173.834824,20.925692 170.363419,21.230381 
	C165.985535,21.614634 162.724182,23.369621 160.068665,27.162586 
	C149.318436,42.517532 138.326797,57.704929 127.275688,72.845726 
	C126.001709,74.591164 123.798691,75.658493 122.103546,76.703262 
	C132.798157,61.515820 143.432053,46.677040 154.020966,31.806219 
	C156.515457,28.303036 158.858307,24.691877 161.270905,21.130390 
	C161.549866,21.074018 161.776352,20.933247 162.416946,20.472206 
	C164.701675,19.533630 166.519867,18.830921 168.338043,18.128210 
z"/>
<path fill="#3FB8CD" opacity="1.000000" stroke="none"
	d="
M121.614441,112.888725
	C121.614441,112.888725 121.613129,113.067932 121.093925,113.078209
	C119.701965,113.093460 118.829201,113.098434 117.956444,113.103409
	C116.901558,110.955353 116.079453,108.648941 114.746750,106.689888
	C111.201393,101.478302 107.448700,96.407227 103.755630,91.296761
	C93.552391,77.177559 83.322853,63.077343 73.133080,48.948437
	C67.596405,41.271412 62.045307,33.602329 56.681210,25.805485
	C55.665321,24.328865 55.498692,22.267971 54.940201,20.476671
	C56.670811,20.393372 58.400848,20.295156 60.132118,20.229187
	C71.784363,19.785187 78.753273,25.935020 84.743690,35.499493
	C93.450203,49.400558 103.473595,62.486027 113.168312,75.749069
	C114.625557,77.742683 117.346840,78.812340 119.572639,80.152313
	C120.279366,79.130196 120.896858,78.265182 121.770386,77.220200
	C123.798691,75.658493 126.001709,74.591164 127.275688,72.845726
	C138.326797,57.704929 149.318436,42.517532 160.068665,27.162586
	C162.724182,23.369621 165.985535,21.614634 170.363419,21.230381
	C173.834824,20.925692 177.286819,20.260601 180.759735,20.153135
	C183.955551,20.054245 184.979523,21.450672 183.104889,24.527967
	C180.961563,28.046364 179.135529,31.758043 177.147827,35.751915
	C177.124039,36.118092 177.095047,36.073444 176.764740,36.141090
	C174.800781,37.511982 172.804138,38.545940 171.600525,40.168251
	C167.771515,45.329315 164.103180,50.623512 160.644989,56.040073
	C158.831696,58.880196 157.586823,62.083225 156.085251,65.122360
	C156.085251,65.122360 156.073318,65.059929 155.781677,65.170486
	C154.187866,66.526115 152.697830,67.626915 151.613281,69.039131
	C143.051605,80.187630 134.420868,91.289131 126.159065,102.657768
	C124.013702,105.609894 123.096024,109.454208 121.614441,112.888725
z"/>
<path fill="#4BA4B3" opacity="1.000000" stroke="none"
	d="
M117.793892,113.255707 
	C118.829201,113.098434 119.701965,113.093460 121.011124,113.112457 
	C120.053413,113.648949 118.659302,114.161461 117.117279,114.341705 
	C117.190361,113.809334 117.411018,113.608856 117.793892,113.255707 
z"/>
<path fill="#4BA4B3" opacity="1.000000" stroke="none" 
	d="
M121.891670,112.682335 
	C123.096024,109.454208 124.013702,105.609894 126.159065,102.657768 
	C134.420868,91.289131 143.051605,80.187630 151.613281,69.039131 
	C152.697830,67.626915 154.187866,66.526115 155.813370,65.172852 
	C147.725250,77.023643 139.347305,89.006416 130.883331,100.928108 
	C128.092850,104.858559 125.080048,108.631165 121.891670,112.682335 
z"/>
<path fill="#4BA4B3" opacity="1.000000" stroke="none" 
	d="
M156.359467,65.003540 
	C157.586823,62.083225 158.831696,58.880196 160.644989,56.040073 
	C164.103180,50.623512 167.771515,45.329315 171.600525,40.168251 
	C172.804138,38.545940 174.800781,37.511982 176.784988,36.154350 
	C171.059418,44.762127 164.983292,53.424278 158.788452,62.406227 
	C157.991058,63.445591 157.312363,64.165161 156.359467,65.003540 
z"/>
</svg>